<svg xmlns="http://www.w3.org/2000/svg" xmlns:xlink="http://www.w3.org/1999/xlink" version="1.1" x="0px" y="0px" viewBox="0 0 100 125" enable-background="new 0 0 100 100" xml:space="preserve" height="30" width="30"><g><path fill="#D67A65" d="M86.455,88.127H29.016c-1.243,0-2.25-1.008-2.25-2.25s1.007-2.25,2.25-2.25h57.439c1.242,0,2.25,1.008,2.25,2.25   S87.697,88.127,86.455,88.127z"/><path fill="#D67A65" d="M56.734,42.5c-8.443,0-15.312-6.87-15.312-15.313s6.869-15.313,15.312-15.313c8.444,0,15.313,6.869,15.313,15.313   S65.179,42.5,56.734,42.5z M56.734,16.373c-5.962,0-10.812,4.851-10.812,10.813S50.772,38,56.734,38   c5.963,0,10.813-4.851,10.813-10.813S62.697,16.373,56.734,16.373z"/><path fill="#D67A65" d="M79.84,80.297h-4.5V63.266c0-8.021-5.841-14.546-13.02-14.546L52.139,48.72c-7.177,0-9.376,1.43-11.316,2.691l-0.497,0.32   c-1.655,1.054-7.807,5.583-7.869,5.629l-1.612,1.188L18.873,45.724c-0.611-0.549-1.888-0.522-2.474,0.063   c-0.714,0.714-0.772,2.276-0.293,2.876l0.061,0.08L29.94,67.669c0.203,0.251,0.479,0.402,0.896,0.446   c1.701,0.161,4.461-1.589,5.529-2.472l3.684-3.046l0.003,17.699h-4.5v-8.842c-1.542,0.738-3.384,1.324-5.167,1.137   c-1.617-0.164-3.007-0.924-4.022-2.195l-13.809-18.97c-1.909-2.446-1.605-6.552,0.664-8.821c2.333-2.333,6.451-2.375,8.815-0.087   l0.08,0.081l9.292,9.953c1.998-1.459,5.275-3.834,6.505-4.617l0.46-0.297c2.343-1.523,5.258-3.418,13.769-3.418l10.182-0.001   c9.66,0,17.52,8.544,17.52,19.046V80.297z"/></g></svg>