<svg xmlns="http://www.w3.org/2000/svg" xmlns:xlink="http://www.w3.org/1999/xlink" version="1.1" x="0px" y="0px" viewBox="0 0 100 125" enable-background="new 0 0 100 100" xml:space="preserve" height="30" width="30"><g><g><path fill="#D67A65" d="M63.5,78.9c-8.7,0-15.8-7.1-15.8-15.8c0-2,0.4-3.9,1.1-5.8l1.9,0.7c-0.6,1.6-0.9,3.3-0.9,5c0,7.6,6.2,13.8,13.8,13.8    c7.6,0,13.8-6.2,13.8-13.8s-6.2-13.8-13.8-13.8c-0.3,0-1.9,0.4-3.2,0.7L59.8,48c1.4-0.4,3.2-0.8,3.7-0.8c8.7,0,15.8,7.1,15.8,15.8    C79.4,71.8,72.3,78.9,63.5,78.9z"/></g><g><path fill="#D67A65" d="M62.8,64.3c-2,0-3.6-0.4-3.8-0.5l-0.2-0.1L39.7,53.2l-15.5-3.6c-1.2-0.3-2.3-1-2.9-2.1s-0.8-2.4-0.5-3.6l3.4-14.1    c0.5-1.7,2-3,3.7-3.2l22.7-5.4c3.4-0.5,6.7,0.5,9.3,2.6l12.2,8.6c2.1,1.7,3.5,2.9,3,6.1l-2.3,11.7l-2-0.4l2.2-11.7    c0.3-2.1-0.3-2.6-2.3-4.3l-0.2-0.2l-11.9-8.4c-2.2-1.8-5-2.6-7.7-2.2l-22.7,5.4c-1.1,0.2-1.9,0.8-2.1,1.8l-3.4,14.1    c-0.2,0.7-0.1,1.4,0.2,2s0.9,1,1.6,1.2l15.9,3.7l19.1,10.5c1.6,0.4,5.8,0.9,7.2-1.1c2.1-2.9,0.4-5.3,0.1-5.7L49.5,41.4l0.2-0.7    c0.6-1.8,1.9-3.1,3.7-3.6c0.1-0.1,0.6-0.5,0.9-0.8c0.9-0.9,1.6-1.5,2.4-1.3c0.4,0.1,0.7,0.3,0.8,0.7c1.1,2.6,4.2,3.4,6,3.9    c1.1,0.3,1.9,0.5,2,1.4l0,0.1l-1,8.1l-2-0.2l0.9-7.3c-0.1,0-0.3-0.1-0.5-0.1c-1.9-0.5-5.2-1.4-7-4.2c-0.2,0.2-0.4,0.3-0.5,0.5    c-0.7,0.7-1.2,1.1-1.7,1.3c-1.1,0.3-1.7,1.1-2.1,1.7l16.6,13c1.2,1.3,2.7,4.7,0.1,8.3C67.2,63.9,64.8,64.3,62.8,64.3z"/></g></g></svg>