<svg xmlns="http://www.w3.org/2000/svg" xmlns:xlink="http://www.w3.org/1999/xlink" version="1.1" x="0px" y="0px" viewBox="0 0 100 125" enable-background="new 0 0 100 100" xml:space="preserve" height="64" width="64"><path fill="#D67A65" d="M84.331,11.86h-9.314c-0.029-3.634-2.978-6.571-6.619-6.571h-8.79c-3.641,0-6.59,2.938-6.619,6.571h-8.01  C44.949,8.227,42,5.289,38.359,5.289h-8.791c-3.641,0-6.59,2.938-6.619,6.571h-8.509c-3.659,0-6.625,2.966-6.625,6.625v69.891  c0,3.659,2.966,6.625,6.625,6.625h69.891c3.659,0,6.625-2.966,6.625-6.625V18.485C90.956,14.826,87.99,11.86,84.331,11.86z   M68.399,11.913v6.571v6.82h-8.79v-6.82v-6.571H68.399z M38.359,18.485v6.82h-8.791v-6.82h0v-6.571h8.79V18.485z M22.944,18.485  v6.82c0,3.659,2.966,6.625,6.625,6.625h8.791c3.659,0,6.625-2.966,6.625-6.625v-6.82h8v6.82c0,3.659,2.966,6.625,6.625,6.625h8.79  c3.659,0,6.625-2.966,6.625-6.625v-6.82h9.308v18.164H14.441V18.485H22.944z M14.441,88.375V43.274h69.891v45.102H14.441z"/></svg>