<svg xmlns="http://www.w3.org/2000/svg" xmlns:xlink="http://www.w3.org/1999/xlink" version="1.1" x="0px" y="0px" viewBox="0 0 100 125" enable-background="new 0 0 100 100" xml:space="preserve" height="30" width="30"><g><path fill="#D67A65" d="M49.763,39.343c5.423,0,9.836,4.485,9.836,9.99c0,5.512-4.413,9.993-9.836,9.993   c-5.424,0-9.833-4.481-9.833-9.993C39.93,43.828,44.339,39.343,49.763,39.343 M49.763,33.97c-8.385,0-15.207,6.892-15.207,15.363   c0,8.474,6.822,15.366,15.207,15.366c8.387,0,15.209-6.893,15.209-15.366C64.972,40.861,58.15,33.97,49.763,33.97L49.763,33.97z"/><path fill="#D67A65" d="M50.032,28.197c2.542,0,5.102,0.277,7.597,0.82c7.42,1.615,15.108,5.642,22.848,11.959   c3.789,3.089,6.595,5.796,8.83,8.519l0.172,0.188c0.046,0.047,0.082,0.122,0.101,0.208l-0.025,0.311   c-0.019,0.048-0.044,0.09-0.076,0.123l-0.167,0.184c-0.835,1.021-1.787,2.001-2.676,2.912c-5.5,5.588-11.333,10.019-17.335,13.167   c-4.511,2.354-8.652,3.858-12.671,4.599c-2.241,0.409-4.481,0.615-6.706,0.615c-2.567,0-5.113-0.273-7.619-0.821   c-7.422-1.615-15.11-5.639-22.85-11.957c-3.781-3.08-6.583-5.783-8.832-8.515c-0.324-0.394-0.324-0.621,0.003-1.018   c0.771-0.944,1.629-1.847,2.679-2.911C18.788,41,24.619,36.57,30.636,33.417c4.517-2.36,8.657-3.864,12.67-4.596   C45.556,28.408,47.817,28.197,50.032,28.197 M50.032,22.824c-2.532,0-5.119,0.239-7.695,0.711   c-4.538,0.827-9.182,2.501-14.189,5.118c-6.514,3.415-12.795,8.177-18.677,14.161c-1.147,1.162-2.102,2.169-3.009,3.279   c-1.951,2.364-1.953,5.447,0.013,7.833c2.482,3.016,5.528,5.961,9.586,9.265c8.397,6.855,16.843,11.245,25.099,13.042   c2.865,0.625,5.814,0.943,8.762,0.943c2.541,0,5.123-0.236,7.673-0.702c4.557-0.839,9.197-2.515,14.191-5.122   c6.506-3.413,12.787-8.175,18.678-14.163c1.015-1.036,1.992-2.05,2.907-3.158l0.052-0.057c0.488-0.526,0.87-1.135,1.135-1.814   l0.287-0.736l0.064-0.787l0.025-0.311L95,49.525l-0.172-0.786c-0.224-1.019-0.707-1.949-1.399-2.698l-0.059-0.066   c-2.451-2.965-5.472-5.88-9.497-9.163c-8.403-6.859-16.849-11.25-25.101-13.046C55.894,23.141,52.955,22.824,50.032,22.824   L50.032,22.824z"/></g></svg>